<?xml version="1.0" standalone="no"?>
<!DOCTYPE svg PUBLIC "-//W3C//DTD SVG 20010904//EN"
 "http://www.w3.org/TR/2001/REC-SVG-20010904/DTD/svg10.dtd">
<svg version="1.0" xmlns="http://www.w3.org/2000/svg"
 width="2050.000000pt" height="2050.000000pt" viewBox="0 0 2050.000000 2050.000000"
 preserveAspectRatio="xMidYMid meet">
<metadata>
Created by potrace 1.11, written by Peter Selinger 2001-2013
</metadata>
<g transform="translate(0.000000,2050.000000) scale(0.100000,-0.100000)"
fill="#000000" stroke="none">
<path d="M5570 19814 c-19 -2 -87 -9 -150 -15 -340 -32 -736 -128 -1070 -261
-1027 -407 -1851 -1231 -2258 -2258 -252 -636 -338 -1346 -246 -2030 154
-1140 795 -2161 1759 -2804 690 -461 1492 -694 2315 -673 426 11 775 71 1177
202 90 29 165 49 168 45 2 -4 25 -10 51 -14 99 -13 217 -118 337 -298 45 -69
612 -1061 687 -1203 74 -139 115 -269 107 -338 -4 -27 -11 -55 -17 -62 -6 -7
-72 -57 -148 -111 -562 -401 -1013 -867 -1367 -1414 -900 -1388 -1074 -3119
-468 -4665 102 -260 293 -633 448 -875 697 -1092 1804 -1891 3055 -2205 1457
-366 2984 -82 4210 784 459 324 897 761 1221 1221 617 873 939 1888 939 2955
-1 879 -219 1726 -641 2482 -298 535 -686 1009 -1149 1407 -87 74 -401 318
-472 367 -24 16 -25 136 -3 215 22 75 27 84 353 619 552 904 522 862 654 934
81 45 148 45 302 3 414 -113 861 -122 1281 -26 902 206 1633 879 1920 1765 77
240 114 455 122 724 14 465 -80 883 -290 1289 -391 757 -1107 1270 -1957 1403
-165 26 -618 26 -775 0 -709 -117 -1305 -476 -1728 -1040 -90 -121 -176 -262
-260 -432 -52 -104 -75 -138 -111 -168 -98 -82 -232 -113 -438 -103 -262 12
-2733 176 -2808 185 -248 33 -377 86 -426 176 -10 19 -22 35 -26 35 -5 0 -8
51 -8 113 -1 828 -220 1578 -655 2247 -603 926 -1556 1563 -2640 1765 -225 42
-387 56 -675 60 -157 2 -301 1 -320 -1z m6050 -4993 c1466 -97 1494 -100 1635
-165 74 -35 102 -59 139 -117 22 -33 23 -50 29 -245 8 -298 40 -482 133 -764
91 -278 254 -579 439 -810 80 -100 259 -284 360 -370 74 -63 83 -75 100 -129
32 -107 9 -225 -80 -402 -42 -84 -277 -474 -574 -955 -88 -142 -169 -259 -209
-303 -65 -72 -149 -131 -188 -131 -11 0 -63 19 -115 41 -678 296 -1356 439
-2084 439 -676 0 -1288 -119 -1926 -374 -91 -36 -174 -66 -183 -66 -74 0 -226
153 -339 342 -120 200 -654 1141 -683 1205 -64 139 -81 270 -47 349 9 22 17
44 17 50 1 7 55 51 121 99 226 165 362 283 555 481 445 457 779 1020 961 1619
39 127 46 144 83 178 46 43 123 82 205 103 89 22 319 12 1651 -75z"/>
</g>
</svg>
